<?xml version="1.0" encoding="utf-8"?>
<svg version="1.1" xmlns:xlink="http://www.w3.org/1999/xlink" width="75px" height="93px" xmlns="http://www.w3.org/2000/svg">
  <g transform="matrix(1 0 0 1 -639 -123 )">
    <path d="M 74.501953125 67.2373046875  C 74.833984375 70.28483072916666  75 73.52408854166667  75 76.955078125  C 75 81.35481770833334  73.779296875 85.12890625  71.337890625 88.27734375  C 68.896484375 91.42578125  65.95703125 93  62.51953125 93  L 12.48046875 93  C 9.04296875 93  6.103515625000001 91.42578125  3.6621093750000004 88.27734375  C 1.2207031250000004 85.12890625  0 81.35481770833334  0 76.955078125  C 0 73.52408854166667  0.1660156250000004 70.28483072916666  0.49804687500000044 67.2373046875  C 0.8300781250000004 64.18977864583331  1.4453125000000002 61.1220703125  2.3437500000000004 58.0341796875  C 3.242187500000001 54.9462890625  4.384765625000001 52.30240885416667  5.771484375 50.10253906250001  C 7.158203125000001 47.90266927083332  8.994140625 46.1064453125  11.279296875 44.7138671875  C 13.564453125 43.3212890625  16.191406250000004 42.625  19.16015625 42.625  C 24.277343750000004 47.791666666666664  30.390625000000004 50.37500000000001  37.5 50.37500000000001  C 44.609375000000014 50.37500000000001  50.72265625000001 47.791666666666664  55.83984375 42.625  C 58.80859375000001 42.625  61.435546875 43.3212890625  63.720703125 44.7138671875  C 66.005859375 46.1064453125  67.84179687500001 47.90266927083332  69.228515625 50.10253906250001  C 70.61523437500001 52.30240885416667  71.7578125 54.9462890625  72.65625 58.0341796875  C 73.55468750000001 61.1220703125  74.169921875 64.18977864583331  74.501953125 67.2373046875  Z M 53.408203125 6.8115234375  C 57.802734375 11.3525390625  60 16.832031250000004  60 23.25  C 60 29.667968749999996  57.802734375 35.1474609375  53.408203125 39.6884765625  C 49.013671875 44.2294921875  43.7109375 46.5  37.5 46.5  C 31.2890625 46.5  25.986328125 44.2294921875  21.591796875 39.6884765625  C 17.197265625 35.1474609375  15 29.667968749999996  15 23.25  C 15 16.832031250000004  17.197265625 11.3525390625  21.591796875 6.8115234375  C 25.986328125 2.2705078125  31.2890625 0  37.5 0  C 43.7109375 0  49.013671875 2.2705078125  53.408203125 6.8115234375  Z " fill-rule="nonzero" fill="#000000" stroke="none" transform="matrix(1 0 0 1 639 123 )" />
  </g>
</svg>