<?xml version="1.0" encoding="utf-8"?>
<svg version="1.1" xmlns:xlink="http://www.w3.org/1999/xlink" width="100px" height="93px" xmlns="http://www.w3.org/2000/svg">
  <g transform="matrix(1 0 0 1 -350 -305 )">
    <path d="M 52.45535714285714 91.91015625  C 51.78571428571429 92.63671875  50.967261904761905 93  50 93  C 49.0327380952381 93  48.21428571428572 92.63671875  47.544642857142854 91.91015625  L 12.723214285714285 55.46093750000001  C 12.351190476190476 55.13802083333333  11.839657738095239 54.61328124999999  11.188616071428571 53.88671874999999  C 10.537574404761905 53.16015624999999  9.505208333333334 51.838216145833336  8.091517857142858 49.92089843750001  C 6.6778273809523805 48.00358072916666  5.412946428571429 46.03580729166666  4.296875 44.017578125  C 3.180803571428571 41.999348958333336  2.1856398809523814 39.557291666666664  1.3113839285714286 36.69140625  C 0.4371279761904762 33.82552083333332  0 31.04036458333333  0 28.3359375  C 0 19.45572916666666  2.3623511904761902 12.513020833333327  7.087053571428571 7.5078124999999964  C 11.811755952380953 2.5026041666666656  18.340773809523807 0  26.674107142857146 0  C 28.980654761904763 0  31.333705357142854 0.4339192708333276  33.73325892857143 1.3017578125000036  C 36.1328125 2.1695963541666585  38.364955357142854 3.3401692708333277  40.4296875 4.8134765625  C 42.49441964285715 6.2867838541666625  44.27083333333334 7.669270833333324  45.75892857142857 8.960937499999996  C 47.24702380952381 10.252604166666659  48.660714285714285 11.625  50 13.078125  C 51.33928571428571 11.625  52.7529761904762 10.252604166666659  54.24107142857143 8.960937499999996  C 55.72916666666667 7.669270833333324  57.50558035714286 6.2867838541666625  59.5703125 4.8134765625  C 61.63504464285714 3.3401692708333277  63.8671875 2.1695963541666585  66.26674107142857 1.3017578125000036  C 68.66629464285714 0.4339192708333276  71.01934523809524 0  73.32589285714286 0  C 81.6592261904762 0  88.18824404761905 2.5026041666666656  92.91294642857143 7.5078124999999964  C 97.63764880952381 12.513020833333327  100 19.45572916666666  100 28.3359375  C 100 37.256510416666664  95.74032738095238 46.338541666666664  87.22098214285714 55.58203125  L 52.45535714285714 91.91015625  Z " fill-rule="nonzero" fill="#000000" stroke="none" transform="matrix(1 0 0 1 350 305 )" />
  </g>
</svg>