<?xml version="1.0" encoding="utf-8"?>
<svg version="1.1" xmlns:xlink="http://www.w3.org/1999/xlink" width="75px" height="93px" xmlns="http://www.w3.org/2000/svg">
  <g transform="matrix(1 0 0 1 -87 -305 )">
    <path d="M 15.869140625 37.62555803571429  C 22.574869791666668 39.11328125000001  29.78515625 39.85714285714286  37.5 39.85714285714286  C 45.21484375 39.85714285714286  52.425130208333336 39.11328125000001  59.130859375 37.62555803571429  C 65.83658854166667 36.13783482142856  71.12630208333334 33.94084821428571  75 31.034598214285708  L 75 39.85714285714286  C 75 42.24441964285714  73.32356770833333 44.458705357142854  69.970703125 46.5  C 66.61783854166667 48.54129464285713  62.060546875 50.15876116071428  56.298828125 51.35239955357143  C 50.537109375 52.54603794642857  44.270833333333336 53.14285714285714  37.5 53.14285714285714  C 30.72916666666667 53.14285714285714  24.462890625 52.54603794642857  18.701171875 51.35239955357143  C 12.939453125 50.15876116071428  8.382161458333334 48.54129464285713  5.029296875 46.5  C 1.6764322916666665 44.458705357142854  0 42.24441964285714  0 39.85714285714286  L 0 31.034598214285708  C 3.873697916666667 33.94084821428571  9.163411458333334 36.13783482142856  15.869140625 37.62555803571429  Z M 15.869140625 77.48270089285714  C 22.574869791666668 78.97042410714286  29.78515625 79.71428571428572  37.5 79.71428571428572  C 45.21484375 79.71428571428572  52.425130208333336 78.97042410714286  59.130859375 77.48270089285714  C 65.83658854166667 75.99497767857142  71.12630208333334 73.79799107142857  75 70.89174107142857  L 75 79.71428571428572  C 75 82.1015625  73.32356770833333 84.31584821428572  69.970703125 86.35714285714286  C 66.61783854166667 88.3984375  62.060546875 90.01590401785714  56.298828125 91.20954241071429  C 50.537109375 92.40318080357143  44.270833333333336 93  37.5 93  C 30.72916666666667 93  24.462890625 92.40318080357143  18.701171875 91.20954241071429  C 12.939453125 90.01590401785714  8.382161458333334 88.3984375  5.029296875 86.35714285714286  C 1.6764322916666665 84.31584821428572  0 82.1015625  0 79.71428571428572  L 0 70.89174107142857  C 3.873697916666667 73.79799107142857  9.163411458333334 75.99497767857142  15.869140625 77.48270089285714  Z M 15.869140625 57.55412946428572  C 22.574869791666668 59.04185267857142  29.78515625 59.78571428571428  37.5 59.78571428571428  C 45.21484375 59.78571428571428  52.425130208333336 59.04185267857142  59.130859375 57.55412946428572  C 65.83658854166667 56.06640624999999  71.12630208333334 53.86941964285714  75 50.96316964285714  L 75 59.78571428571428  C 75 62.17299107142857  73.32356770833333 64.38727678571428  69.970703125 66.42857142857143  C 66.61783854166667 68.46986607142857  62.060546875 70.08733258928572  56.298828125 71.28097098214286  C 50.537109375 72.474609375  44.270833333333336 73.07142857142857  37.5 73.07142857142857  C 30.72916666666667 73.07142857142857  24.462890625 72.474609375  18.701171875 71.28097098214286  C 12.939453125 70.08733258928572  8.382161458333334 68.46986607142857  5.029296875 66.42857142857143  C 1.6764322916666665 64.38727678571428  0 62.17299107142857  0 59.78571428571428  L 0 50.96316964285714  C 3.873697916666667 53.86941964285714  9.163411458333334 56.06640624999999  15.869140625 57.55412946428572  Z M 18.701171875 1.79045758928571  C 24.462890625 0.59681919642857  30.72916666666667 0  37.5 0  C 44.270833333333336 0  50.537109375 0.59681919642857  56.298828125 1.79045758928571  C 62.060546875 2.9840959821428603  66.61783854166667 4.6015624999999964  69.970703125 6.64285714285714  C 73.32356770833333 8.684151785714283  75 10.8984375  75 13.28571428571429  L 75 19.92857142857143  C 75 22.315848214285708  73.32356770833333 24.530133928571416  69.970703125 26.57142857142857  C 66.61783854166667 28.61272321428571  62.060546875 30.23018973214286  56.298828125 31.423828125  C 50.537109375 32.61746651785714  44.270833333333336 33.21428571428571  37.5 33.21428571428571  C 30.72916666666667 33.21428571428571  24.462890625 32.61746651785714  18.701171875 31.423828125  C 12.939453125 30.23018973214286  8.382161458333334 28.61272321428571  5.029296875 26.57142857142857  C 1.6764322916666665 24.530133928571416  0 22.315848214285708  0 19.92857142857143  L 0 13.28571428571429  C 0 10.8984375  1.6764322916666665 8.684151785714283  5.029296875 6.64285714285714  C 8.382161458333334 4.6015624999999964  12.939453125 2.9840959821428603  18.701171875 1.79045758928571  Z " fill-rule="nonzero" fill="#000000" stroke="none" transform="matrix(1 0 0 1 87 305 )" />
  </g>
</svg>