<?xml version="1.0" encoding="utf-8"?>
<svg version="1.1" xmlns:xlink="http://www.w3.org/1999/xlink" width="100px" height="93px" xmlns="http://www.w3.org/2000/svg">
  <g transform="matrix(1 0 0 1 -74 -123 )">
    <path d="M 97.05882352941177 59  L 79.41176470588235 23.25  L 61.76470588235294 59  L 97.05882352941177 59  Z M 38.23529411764706 59  L 20.588235294117645 23.25  L 2.941176470588235 59  L 38.23529411764706 59  Z M 80.88235294117648 14  L 58.31801470588235 14  C 57.88909313725491 14.669642857142847  57.19209558823529 15.90652901785714  56.22702205882353 16.99637276785714  C 55.26194852941176 18.08621651785714  54.16666666666667 18.873325892857135  53 19.35770089285714  L 53 86  L 80.88235294117648 86  C 81.31127450980394 86.35714285714286  81.66360294117648 86.51283482142857  81.93933823529412 86.82421875  C 82.21507352941177 87.13560267857143  82.35294117647058 87.53348214285715  82.35294117647058 88.01785714285714  L 82.35294117647058 91.33928571428571  C 82.35294117647058 91.82366071428571  82.21507352941177 92.22154017857143  81.93933823529412 92.53292410714286  C 81.66360294117648 92.84430803571429  81.31127450980394 93  80.88235294117648 93  L 19.11764705882353 93  C 18.68872549019608 93  18.336397058823533 92.84430803571429  18.06066176470588 92.53292410714286  C 17.784926470588236 92.22154017857143  17.647058823529413 91.82366071428571  17.647058823529413 91.33928571428571  L 17.647058823529413 88.01785714285714  C 17.647058823529413 87.53348214285715  17.784926470588236 87.13560267857143  18.06066176470588 86.82421875  C 18.336397058823533 86.51283482142857  18.68872549019608 86.35714285714286  19.11764705882353 86  L 47 86  L 47 19.35770089285714  C 45.83333333333334 18.873325892857135  44.73805147058824 18.08621651785714  43.77297794117647 16.99637276785714  C 42.80790441176471 15.90652901785714  42.110906862745104 14.669642857142847  41.681985294117645 14  L 19.11764705882353 14  C 18.68872549019608 13.28571428571429  18.336397058823533 13.13002232142857  18.06066176470588 12.81863839285714  C 17.784926470588236 12.50725446428571  17.647058823529413 12.109374999999993  17.647058823529413 11.625  L 17.647058823529413 8.30357142857143  C 17.647058823529413 7.819196428571416  17.784926470588236 7.42131696428571  18.06066176470588 7.10993303571429  C 18.336397058823533 6.79854910714286  18.68872549019608 6.64285714285714  19.11764705882353 7  L 41.681985294117645 7  C 42.325367647058826 4.67075892857143  43.39767156862745 3.0705915178571366  44.89889705882353 1.84235491071429  C 46.40012254901961 0.6141183035714335  48.10049019607843 0  50 0  C 51.899509803921575 0  53.5998774509804 0.6141183035714335  55.10110294117647 1.84235491071429  C 56.60232843137255 3.0705915178571366  57.67463235294118 4.67075892857143  58.31801470588235 7  L 80.88235294117648 7  C 81.31127450980394 6.64285714285714  81.66360294117648 6.79854910714286  81.93933823529412 7.10993303571429  C 82.21507352941177 7.42131696428571  82.35294117647058 7.819196428571416  82.35294117647058 8.30357142857143  L 82.35294117647058 11.625  C 82.35294117647058 12.109374999999993  82.21507352941177 12.50725446428571  81.93933823529412 12.81863839285714  C 81.66360294117648 13.13002232142857  81.31127450980394 13.28571428571429  80.88235294117648 14  Z M 47.403492647058826 12.896484375  C 48.1234681372549 13.709542410714276  48.98897058823529 14.11607142857143  50 14.11607142857143  C 51.01102941176471 14.11607142857143  51.876531862745104 13.709542410714276  52.59650735294118 12.896484375  C 53.31648284313726 12.083426339285714  53.67647058823529 11.10602678571429  53.67647058823529 9.96428571428571  C 53.67647058823529 8.82254464285714  53.31648284313726 7.845145089285706  52.59650735294118 7.03208705357143  C 51.876531862745104 6.219029017857143  51.01102941176471 5.8125  50 5.8125  C 48.98897058823529 5.8125  48.1234681372549 6.219029017857143  47.403492647058826 7.03208705357143  C 46.683517156862756 7.845145089285706  46.32352941176471 8.82254464285714  46.32352941176471 9.96428571428571  C 46.32352941176471 11.10602678571429  46.683517156862756 12.083426339285714  47.403492647058826 12.896484375  Z M 98.39154411764706 55.58203125  C 99.46384803921569 58.003906249999986  100 59.40513392857142  100 59.78571428571428  C 100 62.31138392857142  99.28768382352942 64.57756696428571  97.86305147058823 66.58426339285714  C 96.43841911764706 68.59095982142857  94.63848039215686 70.16517857142857  92.46323529411765 71.30691964285714  C 90.28799019607845 72.44866071428572  88.07444852941177 73.30496651785714  85.82261029411765 73.87583705357143  C 83.57077205882354 74.44670758928572  81.43382352941177 74.73214285714286  79.41176470588235 74.73214285714286  C 77.38970588235296 74.73214285714286  75.25275735294119 74.44670758928572  73.00091911764706 73.87583705357143  C 70.74908088235294 73.30496651785714  68.53553921568628 72.44866071428572  66.36029411764706 71.30691964285714  C 64.18504901960785 70.16517857142857  62.38511029411765 68.59095982142857  60.96047794117647 66.58426339285714  C 59.53584558823529 64.57756696428571  58.82352941176471 62.31138392857142  58.82352941176471 59.78571428571428  C 58.82352941176471 59.40513392857142  59.35968137254902 58.003906249999986  60.43198529411765 55.58203125  C 61.50428921568628 53.16015624999999  62.91360294117647 50.14146205357142  64.65992647058823 46.52594866071428  C 66.40625 42.910435267857146  68.0453431372549 39.52845982142857  69.57720588235294 36.38002232142857  C 71.109068627451 33.23158482142856  72.671568627451 30.04854910714286  74.26470588235294 26.83091517857143  C 75.85784313725492 23.61328125  76.7156862745098 21.883370535714278  76.83823529411765 21.641183035714292  C 77.38970588235294 20.499441964285708  78.24754901960785 19.92857142857143  79.41176470588235 19.92857142857143  C 80.57598039215686 19.92857142857143  81.43382352941177 20.499441964285708  81.98529411764706 21.641183035714292  C 82.10784313725492 21.883370535714278  82.9656862745098 23.61328125  84.55882352941177 26.83091517857143  C 86.15196078431373 30.04854910714286  87.71446078431373 33.23158482142856  89.24632352941177 36.38002232142857  C 90.7781862745098 39.52845982142857  92.41727941176472 42.910435267857146  94.16360294117648 46.52594866071428  C 95.90992647058823 50.14146205357142  97.31924019607845 53.16015624999999  98.39154411764706 55.58203125  Z M 39.568014705882355 55.58203125  C 40.64031862745098 58.003906249999986  41.17647058823529 59.40513392857142  41.17647058823529 59.78571428571428  C 41.17647058823529 62.31138392857142  40.46415441176471 64.57756696428571  39.03952205882353 66.58426339285714  C 37.614889705882355 68.59095982142857  35.814950980392155 70.16517857142857  33.63970588235294 71.30691964285714  C 31.46446078431373 72.44866071428572  29.250919117647058 73.30496651785714  26.999080882352942 73.87583705357143  C 24.747242647058822 74.44670758928572  22.610294117647058 74.73214285714286  20.588235294117645 74.73214285714286  C 18.566176470588236 74.73214285714286  16.42922794117647 74.44670758928572  14.177389705882353 73.87583705357143  C 11.925551470588236 73.30496651785714  9.71200980392157 72.44866071428572  7.536764705882352 71.30691964285714  C 5.361519607843138 70.16517857142857  3.561580882352941 68.59095982142857  2.136948529411765 66.58426339285714  C 0.7123161764705882 64.57756696428571  0 62.31138392857142  0 59.78571428571428  C 0 59.40513392857142  0.5361519607843137 58.003906249999986  1.6084558823529411 55.58203125  C 2.680759803921569 53.16015624999999  4.0900735294117645 50.14146205357142  5.83639705882353 46.52594866071428  C 7.5827205882352935 42.910435267857146  9.221813725490197 39.52845982142857  10.753676470588236 36.38002232142857  C 12.285539215686276 33.23158482142856  13.848039215686276 30.04854910714286  15.441176470588236 26.83091517857143  C 17.034313725490197 23.61328125  17.8921568627451 21.883370535714278  18.014705882352942 21.641183035714292  C 18.566176470588236 20.499441964285708  19.42401960784314 19.92857142857143  20.588235294117645 19.92857142857143  C 21.752450980392158 19.92857142857143  22.61029411764706 20.499441964285708  23.161764705882355 21.641183035714292  C 23.284313725490197 21.883370535714278  24.1421568627451 23.61328125  25.735294117647058 26.83091517857143  C 27.328431372549023 30.04854910714286  28.890931372549023 33.23158482142856  30.422794117647058 36.38002232142857  C 31.9546568627451 39.52845982142857  33.59375 42.910435267857146  35.34007352941176 46.52594866071428  C 37.08639705882353 50.14146205357142  38.49571078431373 53.16015624999999  39.568014705882355 55.58203125  Z " fill-rule="nonzero" fill="#000000" stroke="none" transform="matrix(1 0 0 1 74 123 )" />
  </g>
</svg>