<?xml version="1.0" encoding="utf-8"?>
<svg version="1.1" xmlns:xlink="http://www.w3.org/1999/xlink" width="100px" height="93px" xmlns="http://www.w3.org/2000/svg">
  <g transform="matrix(1 0 0 1 -350 -123 )">
    <path d="M 98.01136363636364 35.66761363636364  C 99.33712121212122 36.900568181818166  100 38.397727272727266  100 40.15909090909091  L 100 52.840909090909086  C 100 54.602272727272734  99.33712121212122 56.09943181818181  98.01136363636364 57.33238636363636  C 96.68560606060606 58.5653409090909  95.07575757575758 59.18181818181818  93.18181818181817 59  L 63 59  L 63 86.65909090909092  C 63.63636363636363 88.42045454545455  62.97348484848485 89.91761363636363  61.64772727272727 91.15056818181819  C 60.32196969696971 92.38352272727273  58.71212121212122 93  56.81818181818182 93  L 43.18181818181818 93  C 41.28787878787879 93  39.67803030303031 92.38352272727273  38.35227272727273 91.15056818181819  C 37.026515151515156 89.91761363636363  36.36363636363637 88.42045454545455  37 86.65909090909092  L 37 59  L 6.8181818181818175 59  C 4.924242424242425 59.18181818181818  3.31439393939394 58.5653409090909  1.9886363636363635 57.33238636363636  C 0.6628787878787878 56.09943181818181  0 54.602272727272734  0 52.840909090909086  L 0 40.15909090909091  C 0 38.397727272727266  0.6628787878787878 36.900568181818166  1.9886363636363635 35.66761363636364  C 3.31439393939394 34.434659090909086  4.924242424242425 33.81818181818182  6.8181818181818175 34  L 37 34  L 37 6.340909090909095  C 36.36363636363637 4.579545454545451  37.026515151515156 3.0823863636363584  38.35227272727273 1.8494318181818192  C 39.67803030303031 0.6164772727272696  41.28787878787879 0  43.18181818181818 0  L 56.81818181818182 0  C 58.71212121212122 0  60.32196969696971 0.6164772727272696  61.64772727272727 1.8494318181818192  C 62.97348484848485 3.0823863636363584  63.63636363636363 4.579545454545451  63 6.340909090909095  L 63 34  L 93.18181818181817 34  C 95.07575757575758 33.81818181818182  96.68560606060606 34.434659090909086  98.01136363636364 35.66761363636364  Z " fill-rule="nonzero" fill="#000000" stroke="none" transform="matrix(1 0 0 1 350 123 )" />
  </g>
</svg>